<svg width="63" height="63" viewBox="0 0 63 63" fill="none" xmlns="http://www.w3.org/2000/svg">
<g clip-path="url(#clip0_3765_36239)">
<path d="M53.0956 8.83715L20.8598 8.27161C10.1145 17.3202 5.02469 24.1067 1.06592 28.631C2.76253 31.4587 9.54901 45.5972 14.6388 52.3837C25.9496 57.4735 38.9571 60.3012 46.8746 61.9978C50.9465 57.4735 58.7509 44.6546 62.1442 38.8107L53.0956 8.83715Z" fill="#3e021f"/>
<path fill-rule="evenodd" clip-rule="evenodd" d="M62.7334 38.9798L62.1172 36.2847C62.1172 36.2847 59.78 26.7043 58.5059 22.183C57.2359 17.6606 55.2922 11.2506 54.2107 7.94897C51.8398 7.96735 30.6334 8.24931 30.6334 8.24931C30.4876 8.25141 30.3678 8.33594 30.3656 8.43885C30.3635 8.54177 30.4797 8.63208 30.6249 8.641L52.6894 10.0109C54.0787 14.2267 55.4284 18.4524 56.6957 22.7012C58.0359 27.1774 59.8476 33.7055 60.9655 38.4978C57.1002 45.7238 52.0082 54.4041 46.3486 61.3765C41.6516 60.4718 30.0119 58.2235 15.2286 51.7683C12.6396 48.3622 10.2739 44.7939 8.16705 41.0769C5.91546 37.1148 3.95376 32.9909 2.19272 28.7799C9.06737 20.0638 13.8166 15.2873 22.3245 7.71059C25.2647 5.09209 28.5085 2.62533 31.7365 0H28.5661C26.0737 2.10026 23.5813 4.10706 21.1919 6.28241C12.6877 14.0245 6.38753 20.613 0.476562 28.5893C1.87219 31.8867 4.65553 37.5984 6.94726 41.7811C9.59542 46.6143 14.4329 52.7507 14.4329 52.7507L16.9395 53.8891C23.2835 56.727 33.5614 60.3657 46.92 63C50.2952 59.2726 57.248 49.2244 61.6013 41.0927" fill="#FEC310"/>
<path d="M34.7169 22.2825H30.9108V30.7518H22.3472V34.5159H30.9108V42.9852H34.7169V34.5159H43.2804V30.7518H34.7169V22.2825Z" fill="#FEC310"/>
</g>
<defs>
<clipPath id="clip0_3765_36239">
<rect width="63" height="63" fill="white"/>
</clipPath>
</defs>
</svg>
