<svg width="63" height="63" viewBox="0 0 63 63" fill="none" xmlns="http://www.w3.org/2000/svg">
<path d="M53.0954 8.83715L20.8597 8.27161C10.1144 17.3202 5.02454 24.1067 1.06577 28.631C2.76238 31.4587 9.54886 45.5972 14.6387 52.3837C25.9495 57.4736 38.9569 60.3013 46.8745 61.9979C50.9464 57.4736 58.7508 44.6547 62.1441 38.8108L53.0954 8.83715Z" fill="#3e021f"/>
<path fill-rule="evenodd" clip-rule="evenodd" d="M62.7333 38.9798L62.1171 36.2847C62.1171 36.2847 59.7799 26.7043 58.5058 22.183C57.2358 17.6606 55.2921 11.2506 54.2106 7.94897C51.8397 7.96735 30.6333 8.24931 30.6333 8.24931C30.4875 8.25141 30.3677 8.33594 30.3655 8.43885C30.3634 8.54177 30.4796 8.63208 30.6248 8.641L52.6893 10.0109C54.0786 14.2267 55.4283 18.4524 56.6956 22.7012C58.0358 27.1774 59.8475 33.7055 60.9654 38.4978C57.1001 45.7238 52.0081 54.4041 46.3485 61.3765C41.6515 60.4718 30.0118 58.2235 15.2285 51.7683C12.6395 48.3622 10.2738 44.7939 8.16693 41.0769C5.91534 37.1148 3.95364 32.9909 2.1926 28.7799C9.06725 20.0638 13.8165 15.2873 22.3244 7.71059C25.2646 5.09209 28.5084 2.62533 31.7364 0H28.566C26.0736 2.10026 23.5812 4.10706 21.1918 6.28241C12.6876 14.0245 6.38741 20.613 0.47644 28.5893C1.87207 31.8867 4.65541 37.5984 6.94714 41.7811C9.5953 46.6143 14.4328 52.7507 14.4328 52.7507L16.9394 53.8891C23.2834 56.727 33.5613 60.3657 46.9199 63C50.2951 59.2726 57.2479 49.2244 61.6012 41.0927" fill="#61619F"/>
<path d="M27.565 35H36.445V31.2H27.565V35Z" fill="#61619F"/>
</svg>
